<svg width="120" height="40" viewBox="0 0 120 40" fill="none" xmlns="http://www.w3.org/2000/svg">
  <!-- U -->
  <path d="M8 8V22C8 26.4183 11.5817 30 16 30C20.4183 30 24 26.4183 24 22V8" stroke="currentColor" stroke-width="3" stroke-linecap="round" stroke-linejoin="round"/>
  
  <!-- i -->
  <circle cx="36" cy="10" r="2" fill="currentColor"/>
  <path d="M36 16V30" stroke="currentColor" stroke-width="3" stroke-linecap="round"/>
  
  <!-- B -->
  <path d="M48 8H56C59.3137 8 62 10.6863 62 14C62 16.2091 60.7659 18.1175 58.9497 19.1722C61.2381 20.0444 63 22.2443 63 25C63 28.3137 60.3137 31 57 31H48V8Z" stroke="currentColor" stroke-width="3" stroke-linecap="round" stroke-linejoin="round"/>
  <path d="M48 19H56" stroke="currentColor" stroke-width="3" stroke-linecap="round"/>
  
  <!-- Accent Line (Investment Bridge Symbol) -->
  <path d="M75 20H112" stroke="#2563eb" stroke-width="2" stroke-linecap="round"/>
  <circle cx="75" cy="20" r="3" fill="#2563eb"/>
  <circle cx="112" cy="20" r="3" fill="#f59e0b"/>
</svg>
